<mxfile host="app.diagrams.net" modified="2022-12-29T01:02:21.623Z" agent="5.0 (Windows NT 10.0; Win64; x64) AppleWebKit/537.36 (KHTML, like Gecko) Chrome/108.0.0.0 Safari/537.36" version="20.7.4" etag="FNHFoHehcudx-W3cTqaP" type="github">
  <diagram id="Yc_5fZJy_dAsRp6oepNu" name="Page-1">
    <mxGraphModel dx="1050" dy="573" grid="1" gridSize="10" guides="1" tooltips="1" connect="1" arrows="1" fold="1" page="1" pageScale="1" pageWidth="850" pageHeight="1100" math="0" shadow="0">
      <root>
        <mxCell id="0" />
        <mxCell id="1" parent="0" />
        <mxCell id="wbQnpSY1Qyb8t-tgeAv0-1" value="first input (year)&amp;nbsp;" style="ellipse;whiteSpace=wrap;html=1;" vertex="1" parent="1">
          <mxGeometry x="305" y="20" width="120" height="80" as="geometry" />
        </mxCell>
        <mxCell id="wbQnpSY1Qyb8t-tgeAv0-2" value="" style="shape=flexArrow;endArrow=classic;html=1;rounded=0;exitX=0.5;exitY=1;exitDx=0;exitDy=0;" edge="1" parent="1" source="wbQnpSY1Qyb8t-tgeAv0-1">
          <mxGeometry width="50" height="50" relative="1" as="geometry">
            <mxPoint x="400" y="320" as="sourcePoint" />
            <mxPoint x="365" y="170" as="targetPoint" />
          </mxGeometry>
        </mxCell>
        <mxCell id="wbQnpSY1Qyb8t-tgeAv0-3" value="if 1 ( year%4 = 0 &amp;amp;&amp;amp; year %20 !=0 )" style="rounded=1;whiteSpace=wrap;html=1;" vertex="1" parent="1">
          <mxGeometry x="305" y="170" width="120" height="60" as="geometry" />
        </mxCell>
        <mxCell id="wbQnpSY1Qyb8t-tgeAv0-4" value="" style="endArrow=classic;html=1;rounded=0;exitX=1;exitY=0.5;exitDx=0;exitDy=0;" edge="1" parent="1" source="wbQnpSY1Qyb8t-tgeAv0-3">
          <mxGeometry width="50" height="50" relative="1" as="geometry">
            <mxPoint x="400" y="320" as="sourcePoint" />
            <mxPoint x="510" y="200" as="targetPoint" />
          </mxGeometry>
        </mxCell>
        <mxCell id="wbQnpSY1Qyb8t-tgeAv0-5" value="yes" style="ellipse;shape=cloud;whiteSpace=wrap;html=1;" vertex="1" parent="1">
          <mxGeometry x="440" y="130" width="70" height="40" as="geometry" />
        </mxCell>
        <mxCell id="wbQnpSY1Qyb8t-tgeAv0-6" value="&lt;ol style=&quot;box-sizing: border-box; margin: 0px; padding: 0px; max-width: 60rem; list-style-type: none; counter-reset: customlistcounter 0; color: rgb(28, 29, 31); font-family: sfmono-regular, Consolas, &amp;quot;liberation mono&amp;quot;, Menlo, Courier, monospace; text-align: start; background-color: rgb(255, 255, 255);&quot; class=&quot;linenums&quot;&gt;&lt;li style=&quot;box-sizing: border-box; margin-top: 0px; margin-right: 0px; margin-left: 0px; padding: 0px 0px 0px 4.8rem; list-style-type: none; counter-increment: customlistcounter 1; text-indent: -4.8rem; margin-bottom: 0px !important;&quot; class=&quot;L0&quot;&gt;&lt;span style=&quot;box-sizing: border-box; margin: 0px; padding: 0px;&quot; class=&quot;typ&quot;&gt;Leap&lt;/span&gt;&lt;span style=&quot;box-sizing: border-box; margin: 0px; padding: 0px;&quot; class=&quot;pln&quot;&gt; year&lt;/span&gt;&lt;span style=&quot;box-sizing: border-box; margin: 0px; padding: 0px;&quot; class=&quot;pun&quot;&gt;.&lt;/span&gt;&lt;/li&gt;&lt;/ol&gt;" style="rounded=1;whiteSpace=wrap;html=1;" vertex="1" parent="1">
          <mxGeometry x="520" y="170" width="120" height="60" as="geometry" />
        </mxCell>
        <mxCell id="wbQnpSY1Qyb8t-tgeAv0-7" value="" style="shape=flexArrow;endArrow=classic;html=1;rounded=0;exitX=0.5;exitY=1;exitDx=0;exitDy=0;" edge="1" parent="1" source="wbQnpSY1Qyb8t-tgeAv0-3" target="wbQnpSY1Qyb8t-tgeAv0-8">
          <mxGeometry width="50" height="50" relative="1" as="geometry">
            <mxPoint x="400" y="320" as="sourcePoint" />
            <mxPoint x="365" y="290" as="targetPoint" />
          </mxGeometry>
        </mxCell>
        <mxCell id="wbQnpSY1Qyb8t-tgeAv0-8" value="if (year%4=0 &amp;amp;&amp;amp;&amp;nbsp;&lt;br style=&quot;border-color: var(--border-color);&quot;&gt;year % 20 =0 &amp;amp;&amp;amp; &lt;br&gt;year %400 =0&lt;br&gt;" style="rounded=1;whiteSpace=wrap;html=1;" vertex="1" parent="1">
          <mxGeometry x="305" y="280" width="120" height="60" as="geometry" />
        </mxCell>
        <mxCell id="wbQnpSY1Qyb8t-tgeAv0-9" value="&lt;ol style=&quot;box-sizing: border-box; margin: 0px; padding: 0px; max-width: 60rem; list-style-type: none; counter-reset: customlistcounter 0; color: rgb(28, 29, 31); font-family: sfmono-regular, Consolas, &amp;quot;liberation mono&amp;quot;, Menlo, Courier, monospace; text-align: start; background-color: rgb(255, 255, 255);&quot; class=&quot;linenums&quot;&gt;&lt;li style=&quot;box-sizing: border-box; margin-top: 0px; margin-right: 0px; margin-left: 0px; padding: 0px 0px 0px 4.8rem; list-style-type: none; counter-increment: customlistcounter 1; text-indent: -4.8rem; margin-bottom: 0px !important;&quot; class=&quot;L0&quot;&gt;&lt;span style=&quot;box-sizing: border-box; margin: 0px; padding: 0px;&quot; class=&quot;typ&quot;&gt;Leap&lt;/span&gt;&lt;span style=&quot;box-sizing: border-box; margin: 0px; padding: 0px;&quot; class=&quot;pln&quot;&gt; year&lt;/span&gt;&lt;span style=&quot;box-sizing: border-box; margin: 0px; padding: 0px;&quot; class=&quot;pun&quot;&gt;.&lt;/span&gt;&lt;/li&gt;&lt;/ol&gt;" style="rounded=1;whiteSpace=wrap;html=1;" vertex="1" parent="1">
          <mxGeometry x="520" y="280" width="120" height="60" as="geometry" />
        </mxCell>
        <mxCell id="wbQnpSY1Qyb8t-tgeAv0-10" value="" style="endArrow=classic;html=1;rounded=0;exitX=1;exitY=0.5;exitDx=0;exitDy=0;entryX=0;entryY=0.5;entryDx=0;entryDy=0;" edge="1" parent="1" source="wbQnpSY1Qyb8t-tgeAv0-8" target="wbQnpSY1Qyb8t-tgeAv0-9">
          <mxGeometry width="50" height="50" relative="1" as="geometry">
            <mxPoint x="435" y="210" as="sourcePoint" />
            <mxPoint x="520" y="210" as="targetPoint" />
            <Array as="points" />
          </mxGeometry>
        </mxCell>
        <mxCell id="wbQnpSY1Qyb8t-tgeAv0-11" value="yes" style="ellipse;shape=cloud;whiteSpace=wrap;html=1;" vertex="1" parent="1">
          <mxGeometry x="440" y="240" width="70" height="40" as="geometry" />
        </mxCell>
        <mxCell id="wbQnpSY1Qyb8t-tgeAv0-12" value="if (year%4=0 &amp;amp;&amp;amp;&amp;nbsp;&lt;br style=&quot;border-color: var(--border-color);&quot;&gt;year % 20 =0 &amp;amp;&amp;amp;" style="rounded=1;whiteSpace=wrap;html=1;" vertex="1" parent="1">
          <mxGeometry x="305" y="380" width="120" height="60" as="geometry" />
        </mxCell>
        <mxCell id="wbQnpSY1Qyb8t-tgeAv0-13" value="" style="shape=flexArrow;endArrow=classic;html=1;rounded=0;exitX=0.5;exitY=1;exitDx=0;exitDy=0;width=44;endSize=8.4;endWidth=0;entryX=0.5;entryY=0;entryDx=0;entryDy=0;" edge="1" parent="1" source="wbQnpSY1Qyb8t-tgeAv0-8" target="wbQnpSY1Qyb8t-tgeAv0-12">
          <mxGeometry width="50" height="50" relative="1" as="geometry">
            <mxPoint x="375" y="240" as="sourcePoint" />
            <mxPoint x="375" y="290" as="targetPoint" />
            <Array as="points">
              <mxPoint x="365" y="360" />
            </Array>
          </mxGeometry>
        </mxCell>
        <mxCell id="wbQnpSY1Qyb8t-tgeAv0-14" value="" style="endArrow=classic;html=1;rounded=0;exitX=1;exitY=0.5;exitDx=0;exitDy=0;" edge="1" parent="1" source="wbQnpSY1Qyb8t-tgeAv0-12">
          <mxGeometry width="50" height="50" relative="1" as="geometry">
            <mxPoint x="435" y="320" as="sourcePoint" />
            <mxPoint x="520" y="410" as="targetPoint" />
            <Array as="points" />
          </mxGeometry>
        </mxCell>
        <mxCell id="wbQnpSY1Qyb8t-tgeAv0-15" value="&lt;ol style=&quot;box-sizing: border-box; margin: 0px; padding: 0px; max-width: 60rem; list-style-type: none; counter-reset: customlistcounter 0; color: rgb(28, 29, 31); font-family: sfmono-regular, Consolas, &amp;quot;liberation mono&amp;quot;, Menlo, Courier, monospace; text-align: start; background-color: rgb(255, 255, 255);&quot; class=&quot;linenums&quot;&gt;&lt;li style=&quot;box-sizing: border-box; margin-top: 0px; margin-right: 0px; margin-left: 0px; padding: 0px 0px 0px 4.8rem; list-style-type: none; counter-increment: customlistcounter 1; text-indent: -4.8rem; margin-bottom: 0px !important;&quot; class=&quot;L0&quot;&gt;&lt;span style=&quot;box-sizing: border-box; margin: 0px; padding: 0px;&quot; class=&quot;typ&quot;&gt;Not&lt;/span&gt;&lt;span style=&quot;box-sizing: border-box; margin: 0px; padding: 0px;&quot; class=&quot;pln&quot;&gt; leap year&lt;/span&gt;&lt;span style=&quot;box-sizing: border-box; margin: 0px; padding: 0px;&quot; class=&quot;pun&quot;&gt;.&lt;/span&gt;&lt;/li&gt;&lt;/ol&gt;" style="rounded=1;whiteSpace=wrap;html=1;" vertex="1" parent="1">
          <mxGeometry x="520" y="380" width="120" height="60" as="geometry" />
        </mxCell>
        <mxCell id="wbQnpSY1Qyb8t-tgeAv0-16" value="yes" style="ellipse;shape=cloud;whiteSpace=wrap;html=1;" vertex="1" parent="1">
          <mxGeometry x="440" y="340" width="70" height="40" as="geometry" />
        </mxCell>
        <mxCell id="wbQnpSY1Qyb8t-tgeAv0-17" value="if 1 ( year%4 != 0 )" style="rounded=1;whiteSpace=wrap;html=1;" vertex="1" parent="1">
          <mxGeometry x="305" y="500" width="120" height="60" as="geometry" />
        </mxCell>
        <mxCell id="wbQnpSY1Qyb8t-tgeAv0-18" value="" style="shape=flexArrow;endArrow=classic;html=1;rounded=0;exitX=0.5;exitY=1;exitDx=0;exitDy=0;entryX=0.5;entryY=0;entryDx=0;entryDy=0;" edge="1" parent="1" source="wbQnpSY1Qyb8t-tgeAv0-12" target="wbQnpSY1Qyb8t-tgeAv0-17">
          <mxGeometry width="50" height="50" relative="1" as="geometry">
            <mxPoint x="375" y="240" as="sourcePoint" />
            <mxPoint x="375" y="290" as="targetPoint" />
          </mxGeometry>
        </mxCell>
        <mxCell id="wbQnpSY1Qyb8t-tgeAv0-19" value="&lt;ol style=&quot;box-sizing: border-box; margin: 0px; padding: 0px; max-width: 60rem; list-style-type: none; counter-reset: customlistcounter 0; color: rgb(28, 29, 31); font-family: sfmono-regular, Consolas, &amp;quot;liberation mono&amp;quot;, Menlo, Courier, monospace; text-align: start; background-color: rgb(255, 255, 255);&quot; class=&quot;linenums&quot;&gt;&lt;li style=&quot;box-sizing: border-box; margin-top: 0px; margin-right: 0px; margin-left: 0px; padding: 0px 0px 0px 4.8rem; list-style-type: none; counter-increment: customlistcounter 1; text-indent: -4.8rem; margin-bottom: 0px !important;&quot; class=&quot;L0&quot;&gt;&lt;span style=&quot;box-sizing: border-box; margin: 0px; padding: 0px;&quot; class=&quot;typ&quot;&gt;Not&lt;/span&gt;&lt;span style=&quot;box-sizing: border-box; margin: 0px; padding: 0px;&quot; class=&quot;pln&quot;&gt; leap year&lt;/span&gt;&lt;span style=&quot;box-sizing: border-box; margin: 0px; padding: 0px;&quot; class=&quot;pun&quot;&gt;.&lt;/span&gt;&lt;/li&gt;&lt;/ol&gt;" style="rounded=1;whiteSpace=wrap;html=1;" vertex="1" parent="1">
          <mxGeometry x="520" y="500" width="120" height="60" as="geometry" />
        </mxCell>
        <mxCell id="wbQnpSY1Qyb8t-tgeAv0-22" value="" style="endArrow=classic;html=1;rounded=0;exitX=1;exitY=0.5;exitDx=0;exitDy=0;entryX=0;entryY=0.5;entryDx=0;entryDy=0;" edge="1" parent="1" source="wbQnpSY1Qyb8t-tgeAv0-17" target="wbQnpSY1Qyb8t-tgeAv0-19">
          <mxGeometry width="50" height="50" relative="1" as="geometry">
            <mxPoint x="400" y="410" as="sourcePoint" />
            <mxPoint x="450" y="360" as="targetPoint" />
          </mxGeometry>
        </mxCell>
        <mxCell id="wbQnpSY1Qyb8t-tgeAv0-23" value="yes" style="ellipse;shape=cloud;whiteSpace=wrap;html=1;" vertex="1" parent="1">
          <mxGeometry x="440" y="450" width="70" height="40" as="geometry" />
        </mxCell>
      </root>
    </mxGraphModel>
  </diagram>
</mxfile>
